<svg width="2444" height="821" viewBox="0 0 2444 821" fill="none" xmlns="http://www.w3.org/2000/svg">
<path d="M678.243 354.621L660.778 415.527L771.449 801.348H683.05L612.199 553.048L540.699 801.348H456.199L385.35 553.048L313.85 801.348H225.449L343.1 391.197H427.6L498.449 640.147L569.949 391.197H569.95L587.869 328.707L678.243 354.621Z" fill="white"/>
<circle cx="1609.5" cy="399.5" r="76.5" fill="#FF0004"/>
<path d="M954.949 475.799C1044.65 475.799 1117.45 547.95 1117.45 638.3C1117.45 651.95 1116.15 666.25 1111.6 680.55H890.6C904.25 701.349 928.299 714.999 954.949 714.999C976.399 714.999 995.9 706.55 1010.85 690.3L1071.95 751.399C1040.75 781.949 999.799 800.8 954.949 800.8C865.249 800.8 792.449 728 792.449 638.3C792.449 548.6 865.249 475.799 954.949 475.799ZM1478.67 117.65C1494.27 103.35 1522.22 93.5996 1544.32 93.5996C1616.47 93.5996 1671.72 155.35 1671.72 232.05V312.391H1586.57V232.05C1586.57 202.8 1561.87 178.75 1531.97 178.75C1502.72 178.75 1478.67 202.8 1478.67 232.05V410.15H1478.63V792.35H1393.48V771.55C1374.63 793 1335.63 800.8 1308.33 800.8C1218.63 800.8 1153.63 728 1153.63 638.3C1153.63 548.6 1220.58 475.799 1308.33 475.799C1335.63 475.799 1373.33 482.949 1393.48 505.049V382.199H1393.52V0H1478.67V117.65ZM1816.78 475.799C1844.08 475.799 1881.78 482.949 1901.93 505.049V483.6H1987.08V792.35H1901.93V771.55C1883.08 793 1844.08 800.8 1816.78 800.8C1727.08 800.8 1662.08 728 1662.08 638.3C1662.08 548.6 1729.03 475.799 1816.78 475.799ZM1617.3 792.35H1532.15V483.6H1617.3V792.35ZM2133.36 792.35H2048.21V707.199H2133.36V792.35ZM1316.13 560.949C1273.88 560.949 1238.78 595.4 1238.78 638.3C1238.78 680.55 1273.23 714.999 1316.13 714.999C1359.03 714.999 1393.48 680.55 1393.48 638.3C1393.48 595.4 1359.03 560.949 1316.13 560.949ZM1824.58 560.949C1782.33 560.949 1747.23 595.4 1747.23 638.3C1747.23 680.55 1781.68 714.999 1824.58 714.999C1867.48 714.999 1901.93 680.55 1901.93 638.3C1901.93 595.4 1867.48 560.949 1824.58 560.949ZM954.949 560.949C928.299 560.949 904.25 574.599 890.6 595.399H1019.3C1005.65 574.599 981.599 560.949 954.949 560.949ZM679.667 93.5996C706.967 93.5997 744.666 100.75 764.816 122.85V101.4H849.967V410.15H764.816V389.351C745.966 410.8 706.967 418.6 679.667 418.601C589.967 418.601 524.967 345.8 524.967 256.1C524.967 166.4 591.917 93.5996 679.667 93.5996ZM1237.17 93.5996C1282.02 93.5996 1322.97 111.8 1354.17 142.35L1293.07 202.8C1278.12 187.2 1258.62 178.75 1237.17 178.75C1194.92 178.75 1159.82 213.2 1159.82 256.1C1159.82 298.35 1194.27 332.8 1237.17 332.8C1258.62 332.8 1278.12 324.35 1293.07 308.1L1354.17 369.2C1322.97 399.75 1282.02 418.601 1237.17 418.601C1147.47 418.601 1074.67 345.8 1074.67 256.1C1074.67 166.4 1147.47 93.5996 1237.17 93.5996ZM2124.5 93.5996C2189.5 93.5996 2241.5 134.55 2241.5 195.65H2156.34C2156.34 189.15 2154.4 185.9 2150.5 183.3C2144 179.4 2134.25 178.75 2124.5 178.75C2114.75 178.75 2105.65 179.4 2099.79 182C2095.24 183.95 2092 186.55 2092 191.75C2092 195.65 2096.55 198.9 2103.7 201.5C2112.15 205.4 2125.8 208 2140.75 210.6C2173.9 215.8 2203.8 228.15 2223.95 247C2241.5 263.9 2251.9 285.351 2251.9 314.601C2251.9 367.25 2215.49 418.601 2129.04 418.601C2038.04 418.601 1996.45 361.4 1996.45 303.55H2082.25C2082.25 323.05 2100.45 332.8 2128.4 332.8C2142.7 332.8 2153.75 330.2 2160.25 325.65C2164.79 323.05 2166.74 319.15 2166.75 314.601C2166.75 307.451 2161.54 303.55 2153.09 300.3C2144.64 297.05 2134.25 294.45 2119.95 291.2C2085.5 283.4 2054.94 271.7 2034.79 254.15C2017.24 238.55 2006.84 219.05 2006.84 191.75C2006.84 139.1 2056.25 93.5996 2124.5 93.5996ZM159.9 248.3L230.75 0H315.25L386.75 248.3L457.601 0H546L428.351 410.15H344.5L273 161.2L202.15 410.15H117.65L0 0H88.4004L159.9 248.3ZM1013.43 101.4H1053.73V186.55H1013.43V410.15H927.626V186.55H887.326V101.4H927.626V0H1013.43V101.4ZM1809.39 410.15H1724.24V0H1809.39V410.15ZM1947.77 410.15H1862.62V101.4H1947.77V410.15ZM2402.93 101.4H2443.23V186.55H2402.93V410.15H2317.13V186.55H2276.83V101.4H2317.13V0H2402.93V101.4ZM687.467 178.75C645.217 178.75 610.116 213.2 610.116 256.1C610.116 298.35 644.567 332.8 687.467 332.8C730.367 332.8 764.816 298.35 764.816 256.1C764.816 213.2 730.367 178.75 687.467 178.75ZM1947.77 85.1504H1862.62V0H1947.77V85.1504Z" fill="white"/>
<path d="M2163 744.5C2163 786.75 2128.75 821 2086.5 821C2044.25 821 2010 786.75 2010 744.5C2010 702.25 2044.25 668 2086.5 668C2128.75 668 2163 702.25 2163 744.5Z" fill="white"/>
</svg>
